<svg xmlns="http://www.w3.org/2000/svg" version="1.1" xmlns:xlink="http://www.w3.org/1999/xlink" xmlns:svgjs="http://svgjs.dev/svgjs" width="1000" height="1000" viewBox="0 0 1000 1000"><rect width="1000" height="1000" fill="#ffffff"></rect><g transform="matrix(0.7,0,0,0.7,149.48408192289372,225.82218623481782)"><svg viewBox="0 0 315 247" data-background-color="#444444" preserveAspectRatio="xMidYMid meet" height="784" width="1000" xmlns="http://www.w3.org/2000/svg" xmlns:xlink="http://www.w3.org/1999/xlink"><g id="tight-bounds" transform="matrix(1,0,0,1,0.2321631346978279,-0.09999999999999432)"><svg viewBox="0 0 314.53567373060434 247.2" height="247.2" width="314.53567373060434"><g><svg viewBox="0 0 395.52 310.8472334484415" height="247.2" width="314.53567373060434"><g transform="matrix(1,0,0,1,0,188.86958813192172)"><svg viewBox="0 0 395.52 121.97764531651978" height="121.97764531651978" width="395.52"><g id="textblocktransform"><svg viewBox="0 0 395.52 121.97764531651978" height="121.97764531651978" width="395.52" id="textblock"><g><svg viewBox="0 0 395.52 85.97435700575814" height="85.97435700575814" width="395.52"><g transform="matrix(1,0,0,1,0,0)"><svg width="395.52" viewBox="-1.7 -36 208.38 45.3" height="85.97435700575814" data-palette-color="#ffffff"><path d="M4.05-36L8.95-36 8.95-31.65 4.05-31.65 4.05-36ZM8.85-25.55L8.85 0.75Q8.85 5.3 7.45 7.3 6.05 9.3 2.6 9.3L2.6 9.3Q0 9.3-1.7 8.35L-1.7 8.35-1.7 4.85Q-0.05 5.6 0.9 5.6L0.9 5.6Q2.75 5.6 3.45 4.83 4.15 4.05 4.15 2.2L4.15 2.2 4.15-25.55 8.85-25.55ZM27.35-26.05Q32.7-26.05 35.9-22.75 39.1-19.45 39.1-13.7L39.1-13.7 39.1-11.85Q39.1-6.1 35.95-2.8 32.8 0.5 27.35 0.5L27.35 0.5Q21.9 0.5 18.75-2.8 15.6-6.1 15.6-11.85L15.6-11.85 15.6-13.7Q15.6-19.45 18.8-22.75 22-26.05 27.35-26.05L27.35-26.05ZM27.35-22.3Q24-22.3 22.15-20 20.3-17.7 20.3-13.25L20.3-13.25 20.3-12.3Q20.3-7.95 22.12-5.6 23.95-3.25 27.35-3.25L27.35-3.25Q30.65-3.25 32.52-5.58 34.4-7.9 34.4-12.3L34.4-12.3 34.4-13.25Q34.4-17.6 32.57-19.95 30.75-22.3 27.35-22.3L27.35-22.3ZM45.75-36L50.65-36 50.65-31.65 45.75-31.65 45.75-36ZM45.85-25.55L50.55-25.55 50.55 0 45.85 0 45.85-25.55ZM71.44-26.05Q75.64-26.05 78.04-23.8 80.44-21.55 80.44-17.2L80.44-17.2 80.44 0 75.74 0 75.74-16.35Q75.74-22.3 70.34-22.3L70.34-22.3Q68.54-22.3 66.99-21.35 65.44-20.4 64.49-18.78 63.54-17.15 63.54-15.2L63.54-15.2 63.54 0 58.84 0 58.84-25.55 62.24-25.55 62.89-21.8Q66.09-26.05 71.44-26.05L71.44-26.05ZM110.69-26.05Q113.74-26.05 116.16-24.73 118.59-23.4 119.94-21 121.29-18.6 121.29-15.5L121.29-15.5 116.64-15.5Q116.64-18.6 115.06-20.45 113.49-22.3 110.54-22.3L110.54-22.3Q107.44-22.3 105.61-20.23 103.79-18.15 103.79-14.55L103.79-14.55 103.79-11.85Q103.79-7.5 105.59-5.38 107.39-3.25 110.69-3.25L110.69-3.25Q113.74-3.25 115.26-5.08 116.79-6.9 116.79-10L116.79-10 121.29-10Q121.29-5.2 118.41-2.35 115.54 0.5 110.74 0.5L110.74 0.5 110.34 0.5Q106.94 0.5 104.39-1.07 101.84-2.65 100.46-5.5 99.09-8.35 99.09-12.15L99.09-12.15 99.09-13.35Q99.09-17.15 100.49-20.03 101.89-22.9 104.44-24.48 106.99-26.05 110.29-26.05L110.29-26.05 110.69-26.05ZM138.09-26.05Q143.44-26.05 146.64-22.75 149.84-19.45 149.84-13.7L149.84-13.7 149.84-11.85Q149.84-6.1 146.69-2.8 143.54 0.5 138.09 0.5L138.09 0.5Q132.64 0.5 129.49-2.8 126.34-6.1 126.34-11.85L126.34-11.85 126.34-13.7Q126.34-19.45 129.54-22.75 132.74-26.05 138.09-26.05L138.09-26.05ZM138.09-22.3Q134.74-22.3 132.89-20 131.04-17.7 131.04-13.25L131.04-13.25 131.04-12.3Q131.04-7.95 132.86-5.6 134.69-3.25 138.09-3.25L138.09-3.25Q141.39-3.25 143.26-5.58 145.14-7.9 145.14-12.3L145.14-12.3 145.14-13.25Q145.14-17.6 143.31-19.95 141.49-22.3 138.09-22.3L138.09-22.3ZM177.43-36L177.43 0 173.93 0Q173.58-1.6 173.28-3.5L173.28-3.5Q170.43 0.5 165.38 0.5L165.38 0.5Q160.58 0.5 157.81-3.05 155.03-6.6 155.03-12.8L155.03-12.8 155.03-13.35Q155.03-19.2 157.76-22.63 160.48-26.05 165.38-26.05L165.38-26.05Q170.13-26.05 172.73-22.3L172.73-22.3 172.73-36 177.43-36ZM166.23-22.3Q162.88-22.3 161.31-19.98 159.73-17.65 159.73-12.75L159.73-12.75Q159.73-7.85 161.33-5.55 162.93-3.25 166.23-3.25L166.23-3.25Q172.78-3.25 172.78-12.75L172.78-12.75Q172.78-17.65 171.13-19.98 169.48-22.3 166.23-22.3L166.23-22.3ZM195.98-26.05Q199.13-26.05 201.56-24.73 203.98-23.4 205.33-20.95 206.68-18.5 206.68-15.25L206.68-15.25 206.68-11.7 188.83-11.7Q188.93-7.65 190.73-5.45 192.53-3.25 196.08-3.25L196.08-3.25Q199.23-3.25 200.73-5.1 202.23-6.95 202.23-9.5L202.23-9.5 206.68-9.5Q206.68-6.5 205.31-4.25 203.93-2 201.51-0.75 199.08 0.5 195.98 0.5L195.98 0.5 195.78 0.5Q190.38 0.5 187.26-2.98 184.13-6.45 184.13-12.25L184.13-12.25 184.13-13.25Q184.13-17.05 185.53-19.95 186.93-22.85 189.53-24.45 192.13-26.05 195.63-26.05L195.63-26.05 195.98-26.05ZM195.73-22.3Q192.88-22.3 191.11-20.55 189.33-18.8 188.93-15.35L188.93-15.35 202.03-15.35 202.03-15.95Q202.03-18.8 200.31-20.55 198.58-22.3 195.73-22.3L195.73-22.3Z" opacity="1" transform="matrix(1,0,0,1,0,0)" fill="#000000" class="wordmark-text-0" data-fill-palette-color="primary" id="text-0"></path></svg></g></svg></g><g transform="matrix(1,0,0,1,0,106.2708393102495)"><svg viewBox="0 0 395.52 15.70680600627028" height="15.70680600627028" width="395.52"><g transform="matrix(1,0,0,1,0,0)"><svg width="395.52" viewBox="2.9 -29.9 909.0500000000001 36.1" height="15.70680600627028" data-palette-color="#00d1cd"><path d="M4.9 0.2Q4.4 0.2 4.15-0.28 3.9-0.75 3.7-1.65L3.7-1.65Q3.65-2.05 3.65-3L3.65-3Q3.55-3.45 3.55-3.95L3.55-3.95Q3.45-5.5 3.15-9L3.15-9Q2.9-11.05 2.9-14.05L2.9-14.05 2.9-28.3Q2.9-28.4 3-28.55 3.1-28.7 3.2-28.8L3.2-28.8 3.4-28.8Q3.45-28.75 3.65-28.75L3.65-28.75Q4.2-28.75 4.75-28.9L4.75-28.9Q5.55-29 5.95-29L5.95-29Q7.2-29 7.9-28.9L7.9-28.9Q8.3-28.9 8.8-28.85 9.3-28.8 9.9-28.8L9.9-28.8 10.05-28.95 12.25-28.95Q12.4-28.8 12.65-28.8L12.65-28.8 12.75-28.9 13.05-28.9Q13.25-28.9 13.3-28.95L13.3-28.95 13.45-28.95Q14-28.95 14.15-28.8L14.15-28.8 25.65-28.8Q25.7-28.75 25.8-28.7 25.9-28.65 25.95-28.65L25.95-28.65 26.15-28.75Q26.2-28.8 26.3-28.8L26.3-28.8Q27.45-28.8 27.95-26.9L27.95-26.9Q28.4-25.1 28.4-22.55L28.4-22.55Q28.4-22.3 28.2-22.18 28-22.05 27.55-21.95L27.55-21.95Q27.4-21.95 27.23-21.93 27.05-21.9 26.8-21.95L26.8-21.95 26.15-21.95 24.15-21.95Q23.65-21.95 23.38-21.93 23.1-21.9 22.9-21.9L22.9-21.9Q22.3-21.75 21.4-21.75L21.4-21.75 20.75-21.75Q20.55-21.75 20.45-21.78 20.35-21.8 20.3-21.8L20.3-21.8 19.95-21.65Q19.9-21.55 19.9-21.15L19.9-21.15Q19.8-20.65 19.7-18.9L19.7-18.9 19.65-16.8Q19.65-16.8 19.65-16.65L19.65-16.65Q19.65-16.6 19.68-16.5 19.7-16.4 19.8-16.3L19.8-16.3 20.7-16.3Q22.45-16.3 23.9-16.05L23.9-16.05Q24.65-15.95 25.28-15.65 25.9-15.35 26.15-14.95L26.15-14.95Q26.55-14.3 26.55-12.9L26.55-12.9Q26.55-11.65 26.5-11.15L26.5-11.15 26.5-9.45Q25.85-9.1 24.4-8.9L24.4-8.9Q23.35-8.65 22.2-8.65L22.2-8.65Q22.05-8.65 22.05-8.7L22.05-8.7Q21.95-8.8 21.9-8.8L21.9-8.8Q21.65-8.8 21.65-8.7L21.65-8.7Q21.55-8.65 21.4-8.65L21.4-8.65 21.15-8.65 20.9-8.75 20.7-8.65Q20.65-8.55 20.6-8.47 20.55-8.4 20.5-8.4L20.5-8.4 19.9-8.4Q19.2-8.4 18.9-8.2L18.9-8.2Q18.8-8.15 18.68-8 18.55-7.85 18.45-7.75L18.45-7.75Q18.45-4.15 18.4-2.9L18.4-2.9Q18.25-0.7 17.9 0L17.9 0 15.55 0.05Q15.15 0.15 14.65 0.15L14.65 0.15 14.15 0.15Q13.7 0.15 13.65 0.05L13.65 0.05Q13.5 0 13.3 0L13.3 0Q13.05 0 12.95 0.15L12.95 0.15 9.2 0.15 8.9 0.15 8.15 0.15 7.25 0.15 6.25 0.15Q5.95 0.2 5.4 0.2L5.4 0.2 4.9 0.2ZM34.7 0.65Q33.8 0.65 33.55-1.15L33.55-1.15Q33.4-1.9 33.4-2.5L33.4-2.5Q33.4-3.3 33.35-3.5L33.35-3.5Q33.3-4.95 33.1-8.1L33.1-8.1 32.95-10Q32.65-14.4 32.65-16.5L32.65-16.5 32.65-28.65Q32.65-29.05 33.55-29.25L33.55-29.25Q34.05-29.4 34.95-29.4L34.95-29.4Q35.55-29.4 36.25-29.33 36.95-29.25 37.3-29.25L37.3-29.25Q38.05-29.15 39.65-29.15L39.65-29.15 39.85-29.3 42.05-29.3Q42.2-29.15 42.4-29.15L42.4-29.15 42.6-29.15Q42.65-29.2 42.85-29.2L42.85-29.2Q42.95-29.25 43.15-29.25L43.15-29.25Q43.2-29.3 43.25-29.3 43.3-29.3 43.3-29.3L43.3-29.3Q43.45-29.3 43.65-29.23 43.85-29.15 43.95-29.15L43.95-29.15 47.65-29.15 47.8-20.55Q47.8-20.5 47.73-20.23 47.65-19.95 47.6-19.5L47.6-19.5Q47.45-17.7 47.45-16.65L47.45-16.65 47.45-6.9 47.3-5Q47.15-3.75 47.2-2.95L47.2-2.95Q47.2-1.9 47.13-1.28 47.05-0.65 46.8-0.3L46.8-0.3Q46.5 0.05 45.85 0.05L45.85 0.05 45.8 0 45.65-0.05Q45.55-0.05 45.55 0L45.55 0 45.3 0Q45 0.1 44.95 0.15L44.95 0.15Q44.7 0.15 43.8 0L43.8 0 43.1-0.05Q42.85-0.05 42.8 0.15L42.8 0.15 39.05 0.15 38.35 0.15 37.05 0.4 35.85 0.55 34.7 0.65ZM58.6 0.15L57.9 0.15 57.1 0.15 56.35 0.15 55.95 0.15 54-0.4 53.9-0.7Q53.85-0.7 53.85-1.2L53.85-1.2Q53.85-1.85 53.8-2.25L53.8-2.25 53.75-4.15Q53.7-4.75 53.7-6.05L53.7-6.05Q53.7-7.3 53.65-7.9L53.65-7.9 53.65-9.4Q53.35-12.55 53.35-15.9L53.35-15.9 53.35-16.3 53.35-17.05Q53.35-17.65 53.4-17.9L53.4-17.9 53.4-18.3 53.4-18.65Q53.35-18.8 53.35-19.15L53.35-19.15 53.35-19.7 53.35-20 53.35-20.5 53.35-21.3Q53.35-21.9 53.4-22.15L53.4-22.15 53.4-22.65 53.45-22.9 53.45-23.55Q53.5-24.05 53.5-24.9L53.5-24.9Q53.5-25.55 53.45-26.05L53.45-26.05 53.4-27.2 53.35-27.4Q53.2-27.5 53.35-27.55L53.35-27.55Q53.55-28.35 54.6-28.7L54.6-28.7Q55.1-28.9 56.25-28.9L56.25-28.9Q57.1-28.9 60.7-29.05L60.7-29.05Q62.5-29.15 62.95-29.15L62.95-29.15Q63.7-29.2 64.75-29.2L64.75-29.2Q65.25-29.15 65.45-29.03 65.65-28.9 65.83-28.6 66-28.3 66.1-28.15L66.1-28.15 67.1-26.7Q67.05-26.75 68.35-24.9L68.35-24.9Q69.55-22.95 71.25-20.5L71.25-20.5Q71.5-20.1 71.85-19.6 72.2-19.1 72.6-18.45L72.6-18.45 72.6-20.2Q72.65-20.9 72.65-22.2L72.65-22.2Q72.65-23.9 72.75-26L72.75-26Q72.75-26.4 72.8-26.73 72.85-27.05 72.85-27.25L72.85-27.25Q72.85-27.75 72.9-27.75L72.9-27.75Q73.1-28.05 73.6-28.4L73.6-28.4Q74.2-28.8 74.85-28.75L74.85-28.75 77.35-28.75 77.85-28.75Q78.6-28.75 79.1-28.7L79.1-28.7 80.6-28.7Q81.1-28.65 82.1-28.65L82.1-28.65 83.2-28.65 83.7-28.65Q84.7-28.65 85.2-28.3L85.2-28.3Q85.5-28.1 85.6-27.78 85.7-27.45 85.7-26.8L85.7-26.8Q85.7-26.15 85.65-25.7L85.65-25.7Q85.6-25.2 85.6-24.5L85.6-24.5 85.6-24.15Q85.65-24 85.65-23.7L85.65-23.7 85.65-22.4 85.6-16.65 85.6-11 85.6-9.65Q85.6-4.25 85.5-2.8L85.5-2.8 85.35-1.15Q85.1 0 84.65 0.05L84.65 0.05Q84.55 0.05 84.38 0.1 84.2 0.15 84 0.15L84 0.15Q82.2 0.15 81.35 0.05L81.35 0.05 78.75 0.05 76.15 0.05 75.5 0.05Q75.35 0.1 75.1 0.1L75.1 0.1Q74.5 0.1 73.85-0.15L73.85-0.15Q73.45-0.25 73-0.7L73-0.7 68.6-6.9Q68.35-7.25 67.65-8.05L67.65-8.05 67-8.65Q66.75-8.9 66.6-8.9L66.6-8.9Q66.45-8.9 66.35-8.78 66.25-8.65 66.25-8.55L66.25-8.55 66.25-7.7Q66.2-7.3 66.2-6.45L66.2-6.45 66.2-5Q66.15-4.45 66.15-3.5L66.15-3.5 66.15-2.3 66.15-1.55Q66.1-1.45 66.1-1.25L66.1-1.25Q66.1-1.2 65.95-0.45L65.95-0.45Q65.85-0.25 65.8-0.2 65.75-0.15 65.45-0.15L65.45-0.15Q65.35-0.2 65.28-0.2 65.2-0.2 65.15-0.2L65.15-0.2Q61.2 0.15 58.6 0.15L58.6 0.15ZM99.4 0Q97.5-0.05 92.85-0.05L92.85-0.05Q92.15-0.05 91.9-0.95L91.9-0.95Q91.75-1.45 91.75-2.7L91.75-2.7Q91.75-4.95 91.65-6.65L91.65-6.65Q91.65-8.2 91.55-12.3L91.55-12.3 91.5-18.3 91.5-27.75Q91.5-28.1 91.88-28.5 92.25-28.9 92.6-28.9L92.6-28.9 95.5-28.85Q96.2-28.8 97.55-28.8L97.55-28.8Q99-28.75 101.15-28.75L101.15-28.75Q104.35-28.75 106.15-28.8L106.15-28.8Q107.9-28.9 112-28.9L112-28.9Q114.8-28.9 117.15-27.9L117.15-27.9Q120.1-26.65 121.85-24L121.85-24Q123.85-20.9 123.85-15.95L123.85-15.95Q123.85-11.5 122.88-8.5 121.9-5.5 119.75-3.65L119.75-3.65Q117.55-1.75 113.98-0.88 110.4 0 105.05 0L105.05 0 99.4 0ZM105.4-5.65Q106.5-5.65 106.85-5.75L106.85-5.75Q107.2-5.85 107.35-6L107.35-6Q108.1-6.75 108.75-10.45L108.75-10.45Q109.3-13.9 109.3-16.9L109.3-16.9 109.3-17.7Q109.3-19.45 109.05-21.05L109.05-21.05Q108.85-23 108.25-24.25L108.25-24.25Q107.9-24.8 107.35-24.8L107.35-24.8Q106.9-24.8 106.25-24.55L106.25-24.55 105.9-24.4Q105.9-23.25 105.8-19.25L105.8-19.25 105.75-16.15Q105.75-15.15 105.7-14.6L105.7-14.6 105.65-13.05 105.4-5.65ZM158.7 6.2Q158.4 6.2 157.2 5.8L157.2 5.8Q157 5.75 156.6 5.55L156.6 5.55Q156.25 5.4 155.95 5.4L155.95 5.4Q155.75 5.4 155.25 5.15L155.25 5.15Q154.9 4.9 154.6 4.9L154.6 4.9 154 4.75Q153.7 4.75 153.6 4.7L153.6 4.7Q153.45 4.7 153.45 4.65L153.45 4.65Q151.85 4.3 150.2 3.5L150.2 3.5 146.95 2.15Q146.6 2 146.6 1.65L146.6 1.65Q146.6 1.35 146.75 1.05L146.75 1.05 148.1-1.3Q148.6-2.25 149.5-3.55L149.5-3.55Q149.85-3.9 150.2-4.8L150.2-4.8Q150.5-5.5 150.5-5.65L150.5-5.65Q149.75-7.1 148.6-8.75L148.6-8.75Q147.45-10.75 146.75-11.4L146.75-11.4Q146.65-11.65 146.3-12.2L146.3-12.2Q145.5-13.6 145.55-13.5L145.55-13.5 144.7-15Q144.35-15.5 143.85-16.5L143.85-16.5Q143.55-17 143.2-17.75L143.2-17.75Q142.75-18.5 142.7-18.65L142.7-18.65Q142.3-19.1 141.35-21.05L141.35-21.05Q140.45-23.05 140.45-23.45L140.45-23.45Q140.45-23.65 140.85-23.98 141.25-24.3 141.75-24.65L141.75-24.65Q143.35-25.4 143.85-25.55L143.85-25.55Q144.5-25.85 144.98-26.05 145.45-26.25 145.75-26.4L145.75-26.4Q146.9-26.95 148.95-27.75L148.95-27.75Q149.35-27.95 150.85-28.55L150.85-28.55Q151.4-28.7 151.85-28.7L151.85-28.7Q152.15-28.7 152.35-28.5L152.35-28.5Q152.55-28.4 152.95-27.7L152.95-27.7 154.7-23.9Q156.2-20.75 156.8-19.65L156.8-19.65Q156.9-19.5 157-19.28 157.1-19.05 157.2-18.95L157.2-18.95Q157.5-18.55 157.75-18.55L157.75-18.55Q157.9-18.55 158.03-18.7 158.15-18.85 158.2-18.95L158.2-18.95 161.6-27.9Q161.8-28.55 162.45-28.9L162.45-28.9Q163-29.25 163.8-29.15L163.8-29.15Q167.05-28.1 168.6-27.45L168.6-27.45Q171.65-26.2 173.1-25.25L173.1-25.25Q173.6-25 173.78-24.63 173.95-24.25 173.8-23.9L173.8-23.9Q173.75-23.45 173.55-23.15L173.55-23.15 173.25-22.55 165.25-5.2 164.85-4.2 159.95 5.15Q159.6 5.75 159.33 5.98 159.05 6.2 158.7 6.2L158.7 6.2ZM193.35 1.25Q192.95 1.25 192.25 1.15L192.25 1.15Q191.9 1.05 191.15 1.05L191.15 1.05Q189.25 1.05 186.45 0.2L186.45 0.2 186.1 0.2Q185.75 0.2 185.35 0L185.35 0Q185.25-0.1 185.1-0.18 184.95-0.25 184.75-0.4L184.75-0.4 183.7-1Q182.2-1.85 181.05-3.38 179.9-4.9 179.2-6.75L179.2-6.75Q177.85-10.15 177.85-13.7L177.85-13.7Q177.85-17.65 179.45-21.3L179.45-21.3Q181.15-25.15 184-27.4L184-27.4Q187.15-29.9 191-29.9L191-29.9Q192.2-29.9 192.85-29.8L192.85-29.8Q192.85-29.9 193-29.9L193-29.9 193.15-29.9Q196.65-29.9 199.4-29.65L199.4-29.65Q201.75-29.3 203.75-28.2L203.75-28.2Q207.75-25.55 209.5-22.4L209.5-22.4Q211.35-18.9 211.35-14.15L211.35-14.15Q211.35-9.4 209.1-5.25L209.1-5.25 208.6-4.45Q208.4-4.15 208.35-4.15L208.35-4.15 208.2-3.9 207.85-3.7Q205.7-0.5 201.35 0.65L201.35 0.65Q198.45 1.25 193.35 1.25L193.35 1.25ZM194.2-2.5Q194.65-2.5 194.9-3.05L194.9-3.05Q195.5-3.95 195.9-6.55L195.9-6.55Q195.95-7 196.15-8.55 196.35-10.1 196.4-11.45L196.4-11.45Q196.6-14.85 196.6-15.65L196.6-15.65 196.6-16.8 196.6-17.2Q196.6-19 196.45-20.3L196.45-20.3Q196.3-22.35 195.85-23.55L195.85-23.55Q195.4-24.15 195.15-24.15L195.15-24.15Q194.65-24.15 194.2-23.4L194.2-23.4Q193.75-22.65 193.5-20.65L193.5-20.65 192.45-12.65 192.45-11.65 192.45-11Q192.6-8.9 192.6-8.25L192.6-8.25 192.7-7.05 192.85-5.45Q192.85-5.05 192.95-4.75L192.95-4.75 193.5-2.9Q193.55-2.7 193.78-2.6 194-2.5 194.2-2.5L194.2-2.5ZM226.4 0.75Q224.4 0.85 223 0.65L223 0.65Q221.85 0.4 220.9-0.05 219.95-0.5 219.15-1.45L219.15-1.45Q217.55-3.45 217-6.7L217-6.7Q216.6-9.35 216.7-12.5L216.7-12.5 216.7-14.7Q216.7-15.15 216.75-15.4L216.75-15.4 216.75-16.4 216.75-17.3 216.75-17.8 216.9-18.15Q216.9-18.2 216.93-18.3 216.95-18.4 216.95-18.65L216.95-18.65Q217.1-20.45 217.1-21.55L217.1-21.55 217.2-23.4Q217.25-24.65 217.25-26.3L217.25-26.3Q217.25-26.95 217.2-27.2L217.2-27.2Q217.1-27.8 217.1-28.15L217.1-28.15Q217.1-28.9 218.65-28.9L218.65-28.9 219.35-28.9Q219.95-28.9 220.15-29L220.15-29 226.25-28.9Q226.25-28.9 226.33-28.83 226.4-28.75 226.45-28.75L226.45-28.75 226.85-28.9Q229.45-28.9 230.2-28.4L230.2-28.4Q230.7-28.05 230.93-27.35 231.15-26.65 231.15-25.45L231.15-25.45Q231.15-24.65 231.25-23.25L231.25-23.25Q231.35-22.55 231.35-21.05L231.35-21.05 231.35-20.55Q231.25-19.1 231.15-15.8L231.15-15.8 231.1-13.4 231.1-11.25Q231-10.65 231-9.65L231-9.65 231-8.9 231-8.15Q230.95-7.45 231.2-6.2L231.2-6.2Q231.45-5.8 231.65-5.8L231.65-5.8Q231.95-5.8 233.9-6.55L233.9-6.55 235.1-7.15Q235.6-7.35 235.6-7.55L235.6-7.55 235.6-24Q235.45-25.05 235.45-25.65L235.45-25.65Q235.4-25.9 235.4-26.4L235.4-26.4 235.4-27.15 235.4-27.65Q235.4-28.25 235.65-28.5L235.65-28.5Q235.75-28.65 236.15-28.65L236.15-28.65Q236.25-28.65 236.35-28.58 236.45-28.5 236.45-28.4L236.45-28.4 236.45-28.3Q236.95-28.5 238.6-28.65L238.6-28.65Q239.95-28.8 241.6-28.8L241.6-28.8 242.85-28.8 243.65-28.8 244.6-28.8 249.85-28.65Q249.95-28.65 250.03-28.6 250.1-28.55 250.1-28.5L250.1-28.5Q250.15-28.5 250.15-28.45 250.15-28.4 250.15-28.4L250.15-28.4 250.15-28.15Q250.1-28.15 250.1-28L250.1-28 250.35-28.05Q250.4-28.15 250.5-28.15L250.5-28.15Q250.65-28.15 250.65-27.9L250.65-27.9Q250.65-19.15 250.58-13.38 250.5-7.6 250.15-1.7L250.15-1.7Q250.15-1.45 249.75-0.95L249.75-0.95Q249.55-0.7 249.4-0.55L249.4-0.55Q249.35-0.45 249.25-0.4 249.15-0.35 249.1-0.3L249.1-0.3Q249.05-0.35 248.75-0.43 248.45-0.5 248.25-0.5L248.25-0.5 248.1-0.4Q248-0.3 247.9-0.3L247.9-0.3Q245.9 0.05 241.6 0.05L241.6 0.05 239.4 0.05Q238.15 0.05 237.2-0.15L237.2-0.15Q236.85-0.4 236.45-1.4L236.45-1.4Q236.4-1.75 236.25-2L236.25-2Q236.15-2.25 236-2.25L236-2.25Q235.6-2.25 234.75-1.7L234.75-1.7Q234.65-1.6 234.48-1.48 234.3-1.35 234.15-1.2L234.15-1.2Q233.75-0.9 233.6-0.7L233.6-0.7Q232.25 0.05 230.4 0.4L230.4 0.4Q229.15 0.7 228.1 0.7L228.1 0.7Q226.95 0.7 226.4 0.75L226.4 0.75ZM279.45 0.55Q277.25-1.6 275.7-3.8L275.7-3.8Q274.6-5.25 272.3-8.95L272.3-8.95 271.45-10.3Q271.4-10.35 271.38-10.38 271.35-10.4 271.35-10.4L271.35-10.4 271.1-10.4 270.9-10.3Q270.85-9.65 270.85-6.8L270.85-6.8Q270.85-4.95 270.65-2.45L270.65-2.45 270.6-0.95Q270.4-0.4 270.35-0.4L270.35-0.4 270-0.4 269.85-0.4Q264.35 0 261.85 0L261.85 0 261.1 0 260.15 0Q259.6 0 259.35-0.05L259.35-0.05 259-0.05 257.45-0.55 257.35-0.9Q257.25-0.9 257.23-1.1 257.2-1.3 257.2-1.4L257.2-1.4Q257.05-3.5 256.95-4.45L256.95-4.45Q256.75-7.15 256.7-8.4L256.7-8.4Q256.6-9.6 256.6-9.95L256.6-9.95 256.35-12.7 256.3-14.2Q256.25-14.65 256.25-15.45L256.25-15.45 256.25-15.9Q256.35-16.15 256.35-16.7L256.35-16.7 256.35-17.55Q256.4-17.75 256.4-18L256.4-18 256.35-18.4 256.35-18.9Q256.35-19.25 256.25-19.45L256.25-19.45 256.25-19.75 256.3-21Q256.35-21.35 256.35-22.05L256.35-22.05Q256.45-23.55 256.45-24.9L256.45-24.9 256.45-25.4Q256.4-25.55 256.4-26.05L256.4-26.05 256.4-26.75 256.4-27.25Q256.25-27.4 256.25-27.55L256.25-27.55Q256.25-28.25 257.5-28.55L257.5-28.55Q258.15-28.75 259.35-28.75L259.35-28.75Q271.05-28.75 276.85-27.95L276.85-27.95Q282.55-27.15 284.85-25.2L284.85-25.2Q285.85-24.25 286.28-22.98 286.7-21.7 286.7-19.95L286.7-19.95Q286.7-17.15 285.1-15.25L285.1-15.25Q284.05-14.2 282.65-13.5L282.65-13.5Q282.95-12.75 284.4-10.5L284.4-10.5Q284.7-10.15 284.98-9.75 285.25-9.35 285.65-8.9L285.65-8.9Q286.6-7.6 287.85-6.05L287.85-6.05Q287.9-5.85 288.25-5.2L288.25-5.2Q288.5-5.1 288.53-4.98 288.55-4.85 288.45-4.65L288.45-4.65Q288.05-4.05 286.1-2.9L286.1-2.9Q285.85-2.65 285.5-2.4L285.5-2.4Q284.5-1.6 282.75-0.75L282.75-0.75Q281.15 0.1 280 0.45L280 0.45Q279.55 0.7 279.45 0.55L279.45 0.55ZM270.35-17.05Q271-17.05 272.1-17.3L272.1-17.3Q273.15-17.6 273.6-17.9L273.6-17.9Q274.35-18.35 274.9-18.9L274.9-18.9Q275.45-19.55 275.45-20.4L275.45-20.4Q275.45-21.8 274.6-22.65L274.6-22.65Q273.85-23.25 272.75-23.25L272.75-23.25 270.6-23.25Q270.6-22.6 270.5-21.2L270.5-21.2 270.45-20.15Q270.35-19.15 270.35-17.05L270.35-17.05ZM308.15 0.15Q307.4 0.15 307.15-0.75L307.15-0.75Q307-1.25 307-2.55L307-2.55Q307-6.4 306.9-9.25L306.9-9.25Q306.75-13.6 306.75-18.3L306.75-18.3 306.75-27.9Q306.75-28.3 307.13-28.65 307.5-29 307.9-29L307.9-29Q311.5-29 312.9-28.95L312.9-28.95 316.55-28.9Q318.05-28.9 321.55-29L321.55-29Q323.35-29.05 327.5-29.05L327.5-29.05Q330.55-29.05 332.75-28.3L332.75-28.3Q335.55-27.4 337.5-25.4L337.5-25.4Q339.5-23 339.5-19.05L339.5-19.05Q339.5-12.55 336.15-9.45L336.15-9.45Q333.1-6.7 327.3-6.7L327.3-6.7 321.35-6.7Q321.35-5.2 321.25-4.9L321.25-4.9Q321.25-4.55 321.2-4.4 321.15-4.25 321.15-4.2L321.15-4.2Q321.15-4.05 321.25-3.9L321.25-3.9 321.25-3.2 321.35-2.55 321.35-2.2Q321.35-0.85 320.75-0.3L320.75-0.3Q320.5-0.1 320.03-0.05 319.55 0 319 0L319 0 316.3 0 314.9 0.05Q312.8 0.15 311.5 0.15L311.5 0.15 308.15 0.15ZM322.55-11.95L323.75-11.95Q324.55-11.95 325.05-13.65L325.05-13.65Q325.4-14.8 325.6-17.2L325.6-17.2Q325.65-18.4 325.65-20L325.65-20 325.65-20.45Q325.65-21.55 325.4-22.55L325.4-22.55Q325.15-24.05 324.55-24.55L324.55-24.55Q324.2-24.9 323.75-24.9L323.75-24.9Q323.35-24.9 323.05-24.4L323.05-24.4Q322.5-23.35 322.25-20.9L322.25-20.9Q322-19.5 322-18.5L322-18.5Q321.75-16.2 321.75-12.05L321.75-12.05Q321.75-12.05 321.83-12.03 321.9-12 322-12L322-12Q322.05-11.95 322.55-11.95L322.55-11.95ZM366.9 0.55Q364.7-1.6 363.15-3.8L363.15-3.8Q362.05-5.25 359.75-8.95L359.75-8.95 358.9-10.3Q358.85-10.35 358.83-10.38 358.8-10.4 358.8-10.4L358.8-10.4 358.55-10.4 358.35-10.3Q358.3-9.65 358.3-6.8L358.3-6.8Q358.3-4.95 358.1-2.45L358.1-2.45 358.05-0.95Q357.85-0.4 357.8-0.4L357.8-0.4 357.45-0.4 357.3-0.4Q351.8 0 349.3 0L349.3 0 348.55 0 347.6 0Q347.05 0 346.8-0.05L346.8-0.05 346.45-0.05 344.9-0.55 344.8-0.9Q344.7-0.9 344.68-1.1 344.65-1.3 344.65-1.4L344.65-1.4Q344.5-3.5 344.4-4.45L344.4-4.45Q344.2-7.15 344.15-8.4L344.15-8.4Q344.05-9.6 344.05-9.95L344.05-9.95 343.8-12.7 343.75-14.2Q343.7-14.65 343.7-15.45L343.7-15.45 343.7-15.9Q343.8-16.15 343.8-16.7L343.8-16.7 343.8-17.55Q343.85-17.75 343.85-18L343.85-18 343.8-18.4 343.8-18.9Q343.8-19.25 343.7-19.45L343.7-19.45 343.7-19.75 343.75-21Q343.8-21.35 343.8-22.05L343.8-22.05Q343.9-23.55 343.9-24.9L343.9-24.9 343.9-25.4Q343.85-25.55 343.85-26.05L343.85-26.05 343.85-26.75 343.85-27.25Q343.7-27.4 343.7-27.55L343.7-27.55Q343.7-28.25 344.95-28.55L344.95-28.55Q345.6-28.75 346.8-28.75L346.8-28.75Q358.5-28.75 364.3-27.95L364.3-27.95Q370-27.15 372.3-25.2L372.3-25.2Q373.3-24.25 373.73-22.98 374.15-21.7 374.15-19.95L374.15-19.95Q374.15-17.15 372.55-15.25L372.55-15.25Q371.5-14.2 370.1-13.5L370.1-13.5Q370.4-12.75 371.85-10.5L371.85-10.5Q372.15-10.15 372.43-9.75 372.7-9.35 373.1-8.9L373.1-8.9Q374.05-7.6 375.3-6.05L375.3-6.05Q375.35-5.85 375.7-5.2L375.7-5.2Q375.95-5.1 375.98-4.98 376-4.85 375.9-4.65L375.9-4.65Q375.5-4.05 373.55-2.9L373.55-2.9Q373.3-2.65 372.95-2.4L372.95-2.4Q371.95-1.6 370.2-0.75L370.2-0.75Q368.6 0.1 367.45 0.45L367.45 0.45Q367 0.7 366.9 0.55L366.9 0.55ZM357.8-17.05Q358.45-17.05 359.55-17.3L359.55-17.3Q360.6-17.6 361.05-17.9L361.05-17.9Q361.8-18.35 362.35-18.9L362.35-18.9Q362.9-19.55 362.9-20.4L362.9-20.4Q362.9-21.8 362.05-22.65L362.05-22.65Q361.3-23.25 360.2-23.25L360.2-23.25 358.05-23.25Q358.05-22.6 357.95-21.2L357.95-21.2 357.9-20.15Q357.8-19.15 357.8-17.05L357.8-17.05ZM394.8 1.25Q394.4 1.25 393.7 1.15L393.7 1.15Q393.35 1.05 392.6 1.05L392.6 1.05Q390.7 1.05 387.9 0.2L387.9 0.2 387.55 0.2Q387.2 0.2 386.8 0L386.8 0Q386.7-0.1 386.55-0.18 386.4-0.25 386.2-0.4L386.2-0.4 385.15-1Q383.65-1.85 382.5-3.38 381.35-4.9 380.65-6.75L380.65-6.75Q379.3-10.15 379.3-13.7L379.3-13.7Q379.3-17.65 380.9-21.3L380.9-21.3Q382.6-25.15 385.45-27.4L385.45-27.4Q388.6-29.9 392.45-29.9L392.45-29.9Q393.65-29.9 394.3-29.8L394.3-29.8Q394.3-29.9 394.45-29.9L394.45-29.9 394.6-29.9Q398.1-29.9 400.85-29.65L400.85-29.65Q403.2-29.3 405.2-28.2L405.2-28.2Q409.2-25.55 410.95-22.4L410.95-22.4Q412.8-18.9 412.8-14.15L412.8-14.15Q412.8-9.4 410.55-5.25L410.55-5.25 410.05-4.45Q409.85-4.15 409.8-4.15L409.8-4.15 409.65-3.9 409.3-3.7Q407.15-0.5 402.8 0.65L402.8 0.65Q399.9 1.25 394.8 1.25L394.8 1.25ZM395.65-2.5Q396.1-2.5 396.35-3.05L396.35-3.05Q396.95-3.95 397.35-6.55L397.35-6.55Q397.4-7 397.6-8.55 397.8-10.1 397.85-11.45L397.85-11.45Q398.05-14.85 398.05-15.65L398.05-15.65 398.05-16.8 398.05-17.2Q398.05-19 397.9-20.3L397.9-20.3Q397.75-22.35 397.3-23.55L397.3-23.55Q396.85-24.15 396.6-24.15L396.6-24.15Q396.1-24.15 395.65-23.4L395.65-23.4Q395.2-22.65 394.95-20.65L394.95-20.65 393.9-12.65 393.9-11.65 393.9-11Q394.05-8.9 394.05-8.25L394.05-8.25 394.15-7.05 394.3-5.45Q394.3-5.05 394.4-4.75L394.4-4.75 394.95-2.9Q395-2.7 395.23-2.6 395.45-2.5 395.65-2.5L395.65-2.5ZM430.15 1.15Q426.95 1.15 424.2-0.4L424.2-0.4Q421-2 419.15-5.2L419.15-5.2Q417.05-8.9 417.05-14.2L417.05-14.2Q417.05-17.85 418.38-20.8 419.7-23.75 422.1-25.8L422.1-25.8Q424.45-27.8 427.65-28.85 430.85-29.9 434.6-29.9L434.6-29.9Q439.95-29.9 446.05-27.05L446.05-27.05 444.3-19.7Q443.4-19.9 442.65-20.15L442.65-20.15Q440.7-20.7 439.1-20.95L439.1-20.95Q438-21.15 437.4-21.15L437.4-21.15Q434.8-21.15 433.35-19.7L433.35-19.7Q431.65-17.9 431.65-13.95L431.65-13.95Q431.65-10.6 432.7-8.8L432.7-8.8Q433.7-7.4 435.35-7.4L435.35-7.4Q436.7-7.4 437.95-7.95L437.95-7.95Q437.9-8.45 437.85-9.13 437.8-9.8 437.8-10.7L437.8-10.7Q437.6-12.5 437.4-13.25L437.4-13.25 437.4-15.2Q437.4-15.55 437.7-15.55L437.7-15.55 437.95-15.55Q438.1-15.55 438.25-15.6 438.4-15.65 438.55-15.65L438.55-15.65Q439.05-15.75 439.15-15.75L439.15-15.75Q439.5-15.75 440.1-15.65L440.1-15.65Q440.3-15.65 440.55-15.6 440.8-15.55 441.05-15.55L441.05-15.55Q441.25-15.75 442.3-15.75L442.3-15.75Q443.1-15.75 443.55-15.8L443.55-15.8Q443.85-15.9 444.3-15.9L444.3-15.9 444.9-16.05Q445.35-16 446.2-16L446.2-16Q446.55-15.95 447.15-15.95L447.15-15.95Q447.3-15.95 447.4-15.93 447.5-15.9 447.55-15.9L447.55-15.9 448.65-15.9 448.85-15.8 448.85-14.4Q448.9-14.15 448.9-13.65L448.9-13.65 448.9-12.95 448.9-11.65 448.9-7.25 448.9-7.05Q448.85-6.9 448.85-6.65L448.85-6.65Q448.8-6.45 448.8-6.2L448.8-6.2 448.8-5.95Q448.8-3.3 448.7-2.2L448.7-2.2Q448.6-0.55 448.35 0.05L448.35 0.05Q447.3 0.05 446.7 0.15L446.7 0.15 445.7 0.15 445.6 0.15 445.15 0.15 445.1 0.05 444.9 0.15 440.55 0.15 440.35 0.15 439.9 0.15 439.4 0.15Q439.3 0.2 439.05 0.2L439.05 0.2Q438.7 0.2 438.55-0.8L438.55-0.8Q438.3-1.9 438.3-3.4L438.3-3.4Q437.8-1.2 435.55 0L435.55 0Q433.35 1.15 430.15 1.15L430.15 1.15ZM477.2 0.55Q475-1.6 473.45-3.8L473.45-3.8Q472.35-5.25 470.05-8.95L470.05-8.95 469.2-10.3Q469.15-10.35 469.13-10.38 469.1-10.4 469.1-10.4L469.1-10.4 468.85-10.4 468.65-10.3Q468.6-9.65 468.6-6.8L468.6-6.8Q468.6-4.95 468.4-2.45L468.4-2.45 468.35-0.95Q468.15-0.4 468.1-0.4L468.1-0.4 467.75-0.4 467.6-0.4Q462.1 0 459.6 0L459.6 0 458.85 0 457.9 0Q457.35 0 457.1-0.05L457.1-0.05 456.75-0.05 455.2-0.55 455.1-0.9Q455-0.9 454.98-1.1 454.95-1.3 454.95-1.4L454.95-1.4Q454.8-3.5 454.7-4.45L454.7-4.45Q454.5-7.15 454.45-8.4L454.45-8.4Q454.35-9.6 454.35-9.95L454.35-9.95 454.1-12.7 454.05-14.2Q454-14.65 454-15.45L454-15.45 454-15.9Q454.1-16.15 454.1-16.7L454.1-16.7 454.1-17.55Q454.15-17.75 454.15-18L454.15-18 454.1-18.4 454.1-18.9Q454.1-19.25 454-19.45L454-19.45 454-19.75 454.05-21Q454.1-21.35 454.1-22.05L454.1-22.05Q454.2-23.55 454.2-24.9L454.2-24.9 454.2-25.4Q454.15-25.55 454.15-26.05L454.15-26.05 454.15-26.75 454.15-27.25Q454-27.4 454-27.55L454-27.55Q454-28.25 455.25-28.55L455.25-28.55Q455.9-28.75 457.1-28.75L457.1-28.75Q468.8-28.75 474.6-27.95L474.6-27.95Q480.3-27.15 482.6-25.2L482.6-25.2Q483.6-24.25 484.03-22.98 484.45-21.7 484.45-19.95L484.45-19.95Q484.45-17.15 482.85-15.25L482.85-15.25Q481.8-14.2 480.4-13.5L480.4-13.5Q480.7-12.75 482.15-10.5L482.15-10.5Q482.45-10.15 482.73-9.75 483-9.35 483.4-8.9L483.4-8.9Q484.35-7.6 485.6-6.05L485.6-6.05Q485.65-5.85 486-5.2L486-5.2Q486.25-5.1 486.28-4.98 486.3-4.85 486.2-4.65L486.2-4.65Q485.8-4.05 483.85-2.9L483.85-2.9Q483.6-2.65 483.25-2.4L483.25-2.4Q482.25-1.6 480.5-0.75L480.5-0.75Q478.9 0.1 477.75 0.45L477.75 0.45Q477.3 0.7 477.2 0.55L477.2 0.55ZM468.1-17.05Q468.75-17.05 469.85-17.3L469.85-17.3Q470.9-17.6 471.35-17.9L471.35-17.9Q472.1-18.35 472.65-18.9L472.65-18.9Q473.2-19.55 473.2-20.4L473.2-20.4Q473.2-21.8 472.35-22.65L472.35-22.65Q471.6-23.25 470.5-23.25L470.5-23.25 468.35-23.25Q468.35-22.6 468.25-21.2L468.25-21.2 468.2-20.15Q468.1-19.15 468.1-17.05L468.1-17.05ZM492.1 0.05Q491.15 0.05 491.35-1.65L491.35-1.65Q491.35-2.25 491.6-3L491.6-3Q491.6-3.35 491.65-3.58 491.7-3.8 491.7-3.95L491.7-3.95Q492.85-9.4 494.25-14.7L494.25-14.7 497.65-28Q497.65-28.1 497.8-28.25 497.95-28.4 498.1-28.5L498.1-28.5 498.45-28.5Q499.05-28.5 499.4-28.65L499.4-28.65Q499.7-28.7 500.45-28.7L500.45-28.7Q501.65-28.7 502.25-28.65L502.25-28.65Q503.15-28.5 504.1-28.5L504.1-28.5 506.7-28.55Q507.1-28.65 507.65-28.65L507.65-28.65 509.85-28.75 511.5-28.75Q512.45-28.75 513.35-28.7L513.35-28.7 514.75-28.7Q515.25-28.65 516.2-28.65L516.2-28.65 518.1-28.65Q518.25-28.65 518.4-28.6 518.55-28.55 518.65-28.5L518.65-28.5Q518.85-28.4 519.15-28.4L519.15-28.4 519.6-28.4Q519.95-28.15 519.95-27.9L519.95-27.9 523.5-14.7Q525.15-8.35 526.1-3.95L526.1-3.95Q526.1-3.7 526.25-3L526.25-3Q526.45-2 526.45-1.4L526.45-1.4Q526.45-1.05 526.35-0.45L526.35-0.45Q526.1 0.05 525.65 0.05L525.65 0.05 525.1 0.05Q524.45 0.05 524.1 0L524.1 0 523 0 521.95 0 521.1 0Q520.75 0 520.7-0.05L520.7-0.05 517.95-0.05 517.9-0.15Q517.8-0.25 517.6-0.25L517.6-0.25 517.45-0.15Q517.45-0.05 517.35-0.05L517.35-0.05 517.2-0.05 516.85-0.05Q516.6-0.15 515.95-0.15L515.95-0.15Q514.75-0.25 513.95-0.25L513.95-0.25Q513.4-1.4 512.65-5.3L512.65-5.3Q511.6-5.15 510.25-5.15L510.25-5.15 508.95-5.15 507.7-5.15Q507.5-4.4 507.45-3.9L507.45-3.9Q507.4-3.65 507.05-2.2 506.7-0.75 506.4-0.25L506.4-0.25 506.1-0.15Q505.95-0.1 505.85-0.08 505.75-0.05 505.75-0.05L505.75-0.05 505.65-0.05Q505.35-0.05 505.25-0.15L505.25-0.15Q505.05-0.25 505-0.25L505-0.25 503.1-0.15 501.7-0.15Q501.45-0.1 501.3-0.08 501.15-0.05 501.1-0.05L501.1-0.05 497.1-0.05 496.7-0.05Q496.25 0 494.85 0L494.85 0 493.65 0Q493.35 0.05 492.7 0.05L492.7 0.05 492.1 0.05ZM512.2-10.65Q511.9-12.35 511.85-12.65L511.85-12.65 511.45-15.05Q511.35-15.75 511.25-16.32 511.15-16.9 511.1-17.4L511.1-17.4Q510.95-18 510.88-18.53 510.8-19.05 510.7-19.5L510.7-19.5Q510.65-19.8 510.6-20.28 510.55-20.75 510.45-20.95L510.45-20.95 510.35-21.55Q510.35-21.75 510.25-21.9L510.25-21.9 510.2-22.2Q510.1-21.9 510.1-21.9L510.1-21.9 510.1-21.7 510.1-21.55Q510.1-21.5 510.05-21.38 510-21.25 509.95-20.95L509.95-20.95Q509.9-20.7 509.85-20.33 509.8-19.95 509.7-19.5L509.7-19.5 509.35-17.45 508.95-15.15 508.8-14.05Q508.7-13.65 508.6-12.75L508.6-12.75Q508.15-10.5 508.2-10.7L508.2-10.7 510.4-10.7Q510.45-10.75 510.55-10.83 510.65-10.9 510.7-10.9L510.7-10.9 510.85-10.9Q511.1-10.9 511.28-10.85 511.45-10.8 511.6-10.75L511.6-10.75Q511.9-10.65 512.2-10.65L512.2-10.65ZM537 0.15Q536.55 0.15 536.3 0.05L536.3 0.05 535.4 0.05 534.65 0.05 534.3 0.05 532.4-0.4 532.25-0.75 532.25-1.25 532.2-2.6Q532.1-3.5 532.1-4.15L532.1-4.15 532.05-7.95Q532-8.5 532-9.45L532-9.45Q532-11.75 532.15-13.9L532.15-13.9Q532.25-15.3 532.25-18.4L532.25-18.4Q532.25-18.9 532.15-19.25L532.15-19.25 532.15-19.75 532.1-20.05Q532.1-21.2 532.25-22.3L532.25-22.3 532.3-24.95 532.25-26.15 532.25-27.3Q532.1-27.45 532.1-27.65L532.1-27.65Q532.1-28.4 533.3-28.75L533.3-28.75Q534-28.95 535.05-28.95L535.05-28.95 542.35-28.95 545.75-28.9Q545.75-28.9 545.83-28.85 545.9-28.8 546-28.7L546-28.7Q546.4-28.3 546.8-27.65L546.8-27.65Q547.25-26.9 547.55-26.05L547.55-26.05Q547.9-25.05 548.9-22.55L548.9-22.55Q549.7-20.5 550.25-19.3L550.25-19.3Q550.65-18 551.15-18L551.15-18Q551.6-18 551.85-18.65L551.85-18.65Q551.95-18.75 552.15-19.3L552.15-19.3 552.95-21.15Q553.05-21.35 553.65-22.65L553.65-22.65Q553.8-22.9 554.5-24.45L554.5-24.45 555.25-26.05Q555.35-26.35 555.55-26.8 555.75-27.25 556-27.65L556-27.65Q556.5-28.45 556.8-28.7L556.8-28.7Q556.9-28.9 557.1-28.9L557.1-28.9 560.5-28.95 567.75-28.95 568.35-28.95 568.8-28.95 569.4-28.95Q569.6-28.9 570.3-28.9L570.3-28.9Q570.35-28.9 570.5-28.25L570.5-28.25Q570.65-25.7 570.65-24.15L570.65-24.15Q570.75-22.25 570.75-18.4L570.75-18.4 570.75-15.9Q570.75-13.65 570.35-9.45L570.35-9.45 570.35-7.95Q570.4-7.3 570.4-6.15L570.4-6.15 570.45-4.05Q570.5-3.45 570.5-2.45L570.5-2.45Q570.5-1.55 570.55-1.25L570.55-1.25 570.55-0.75 570.4-0.4 568.5 0.05 568.1 0.05 567.4 0.05 566.55 0.05Q566.25 0.15 565.8 0.15L565.8 0.15Q563.85 0.15 561.8-0.03 559.75-0.2 559.25-0.25L559.25-0.25 559.05-0.2 558.8-0.2Q558.5-0.2 558.5-1.15L558.5-1.15Q558.25-2.45 558.25-6.9L558.25-6.9Q558.15-8.15 558.15-10.3L558.15-10.3Q558.15-10.65 557.8-10.65L557.8-10.65Q557.65-10.65 557.5-10.25L557.5-10.25Q556.75-8.45 556.6-8L556.6-8 556.25-6.95 555.85-6.15Q554.95-4.15 553.9-3.05L553.9-3.05Q553.25-2.4 552.55-2.4L552.55-2.4 551.9-2.4 551-2.4Q550.35-2.4 550.05-2.45L550.05-2.45Q549.5-2.45 549.25-2.5L549.25-2.5Q547.5-5.2 546-8.45L546-8.45Q545.8-9.05 545.63-9.45 545.45-9.85 545.35-10.15L545.35-10.15Q545-10.65 545-10.65L545-10.65Q544.65-10.65 544.65-10.3L544.65-10.3 544.65-8.3Q544.65-5.25 544.6-3.9L544.6-3.9Q544.6-1.75 544.3-0.7L544.3-0.7Q544.25-0.5 544.18-0.35 544.1-0.2 544-0.2L544-0.2 543.75-0.2 543.55-0.25Q543.1-0.2 541.08-0.03 539.05 0.15 537 0.15L537 0.15ZM581.5 0.15Q581.05 0.15 580.8 0.05L580.8 0.05 579.9 0.05 579.15 0.05 578.8 0.05 576.9-0.4 576.75-0.75 576.75-1.25 576.7-2.6Q576.6-3.5 576.6-4.15L576.6-4.15 576.55-7.95Q576.5-8.5 576.5-9.45L576.5-9.45Q576.5-11.75 576.65-13.9L576.65-13.9Q576.75-15.3 576.75-18.4L576.75-18.4Q576.75-18.9 576.65-19.25L576.65-19.25 576.65-19.75 576.6-20.05Q576.6-21.2 576.75-22.3L576.75-22.3 576.8-24.95 576.75-26.15 576.75-27.3Q576.6-27.45 576.6-27.65L576.6-27.65Q576.6-28.4 577.8-28.75L577.8-28.75Q578.5-28.95 579.55-28.95L579.55-28.95 586.85-28.95 590.25-28.9Q590.25-28.9 590.33-28.85 590.4-28.8 590.5-28.7L590.5-28.7Q590.9-28.3 591.3-27.65L591.3-27.65Q591.75-26.9 592.05-26.05L592.05-26.05Q592.4-25.05 593.4-22.55L593.4-22.55Q594.2-20.5 594.75-19.3L594.75-19.3Q595.15-18 595.65-18L595.65-18Q596.1-18 596.35-18.65L596.35-18.65Q596.45-18.75 596.65-19.3L596.65-19.3 597.45-21.15Q597.55-21.35 598.15-22.65L598.15-22.65Q598.3-22.9 599-24.45L599-24.45 599.75-26.05Q599.85-26.35 600.05-26.8 600.25-27.25 600.5-27.65L600.5-27.65Q601-28.45 601.3-28.7L601.3-28.7Q601.4-28.9 601.6-28.9L601.6-28.9 605-28.95 612.25-28.95 612.85-28.95 613.3-28.95 613.9-28.95Q614.1-28.9 614.8-28.9L614.8-28.9Q614.85-28.9 615-28.25L615-28.25Q615.15-25.7 615.15-24.15L615.15-24.15Q615.25-22.25 615.25-18.4L615.25-18.4 615.25-15.9Q615.25-13.65 614.85-9.45L614.85-9.45 614.85-7.95Q614.9-7.3 614.9-6.15L614.9-6.15 614.95-4.05Q615-3.45 615-2.45L615-2.45Q615-1.55 615.05-1.25L615.05-1.25 615.05-0.75 614.9-0.4 613 0.05 612.6 0.05 611.9 0.05 611.05 0.05Q610.75 0.15 610.3 0.15L610.3 0.15Q608.35 0.15 606.3-0.03 604.25-0.2 603.75-0.25L603.75-0.25 603.55-0.2 603.3-0.2Q603-0.2 603-1.15L603-1.15Q602.75-2.45 602.75-6.9L602.75-6.9Q602.65-8.15 602.65-10.3L602.65-10.3Q602.65-10.65 602.3-10.65L602.3-10.65Q602.15-10.65 602-10.25L602-10.25Q601.25-8.45 601.1-8L601.1-8 600.75-6.95 600.35-6.15Q599.45-4.15 598.4-3.05L598.4-3.05Q597.75-2.4 597.05-2.4L597.05-2.4 596.4-2.4 595.5-2.4Q594.85-2.4 594.55-2.45L594.55-2.45Q594-2.45 593.75-2.5L593.75-2.5Q592-5.2 590.5-8.45L590.5-8.45Q590.3-9.05 590.13-9.45 589.95-9.85 589.85-10.15L589.85-10.15Q589.5-10.65 589.5-10.65L589.5-10.65Q589.15-10.65 589.15-10.3L589.15-10.3 589.15-8.3Q589.15-5.25 589.1-3.9L589.1-3.9Q589.1-1.75 588.8-0.7L588.8-0.7Q588.75-0.5 588.68-0.35 588.6-0.2 588.5-0.2L588.5-0.2 588.25-0.2 588.05-0.25Q587.6-0.2 585.58-0.03 583.55 0.15 581.5 0.15L581.5 0.15ZM622.9 0.65Q622 0.65 621.75-1.15L621.75-1.15Q621.6-1.9 621.6-2.5L621.6-2.5Q621.6-3.3 621.55-3.5L621.55-3.5Q621.5-4.95 621.3-8.1L621.3-8.1 621.15-10Q620.85-14.4 620.85-16.5L620.85-16.5 620.85-28.65Q620.85-29.05 621.75-29.25L621.75-29.25Q622.25-29.4 623.15-29.4L623.15-29.4Q623.75-29.4 624.45-29.33 625.15-29.25 625.5-29.25L625.5-29.25Q626.25-29.15 627.85-29.15L627.85-29.15 628.05-29.3 630.25-29.3Q630.4-29.15 630.6-29.15L630.6-29.15 630.8-29.15Q630.85-29.2 631.05-29.2L631.05-29.2Q631.15-29.25 631.35-29.25L631.35-29.25Q631.4-29.3 631.45-29.3 631.5-29.3 631.5-29.3L631.5-29.3Q631.65-29.3 631.85-29.23 632.05-29.15 632.15-29.15L632.15-29.15 635.85-29.15 636-20.55Q636-20.5 635.93-20.23 635.85-19.95 635.8-19.5L635.8-19.5Q635.65-17.7 635.65-16.65L635.65-16.65 635.65-6.9 635.5-5Q635.35-3.75 635.4-2.95L635.4-2.95Q635.4-1.9 635.33-1.28 635.25-0.65 635-0.3L635-0.3Q634.7 0.05 634.05 0.05L634.05 0.05 634 0 633.85-0.05Q633.75-0.05 633.75 0L633.75 0 633.5 0Q633.2 0.1 633.15 0.15L633.15 0.15Q632.9 0.15 632 0L632 0 631.3-0.05Q631.05-0.05 631 0.15L631 0.15 627.25 0.15 626.55 0.15 625.25 0.4 624.05 0.55 622.9 0.65ZM646.8 0.15L646.1 0.15 645.3 0.15 644.55 0.15 644.15 0.15 642.2-0.4 642.1-0.7Q642.05-0.7 642.05-1.2L642.05-1.2Q642.05-1.85 642-2.25L642-2.25 641.95-4.15Q641.9-4.75 641.9-6.05L641.9-6.05Q641.9-7.3 641.85-7.9L641.85-7.9 641.85-9.4Q641.55-12.55 641.55-15.9L641.55-15.9 641.55-16.3 641.55-17.05Q641.55-17.65 641.6-17.9L641.6-17.9 641.6-18.3 641.6-18.65Q641.55-18.8 641.55-19.15L641.55-19.15 641.55-19.7 641.55-20 641.55-20.5 641.55-21.3Q641.55-21.9 641.6-22.15L641.6-22.15 641.6-22.65 641.65-22.9 641.65-23.55Q641.7-24.05 641.7-24.9L641.7-24.9Q641.7-25.55 641.65-26.05L641.65-26.05 641.6-27.2 641.55-27.4Q641.4-27.5 641.55-27.55L641.55-27.55Q641.75-28.35 642.8-28.7L642.8-28.7Q643.3-28.9 644.45-28.9L644.45-28.9Q645.3-28.9 648.9-29.05L648.9-29.05Q650.7-29.15 651.15-29.15L651.15-29.15Q651.9-29.2 652.95-29.2L652.95-29.2Q653.45-29.15 653.65-29.03 653.85-28.9 654.02-28.6 654.2-28.3 654.3-28.15L654.3-28.15 655.3-26.7Q655.25-26.75 656.55-24.9L656.55-24.9Q657.75-22.95 659.45-20.5L659.45-20.5Q659.7-20.1 660.05-19.6 660.4-19.1 660.8-18.45L660.8-18.45 660.8-20.2Q660.85-20.9 660.85-22.2L660.85-22.2Q660.85-23.9 660.95-26L660.95-26Q660.95-26.4 661-26.73 661.05-27.05 661.05-27.25L661.05-27.25Q661.05-27.75 661.1-27.75L661.1-27.75Q661.3-28.05 661.8-28.4L661.8-28.4Q662.4-28.8 663.05-28.75L663.05-28.75 665.55-28.75 666.05-28.75Q666.8-28.75 667.3-28.7L667.3-28.7 668.8-28.7Q669.3-28.65 670.3-28.65L670.3-28.65 671.4-28.65 671.9-28.65Q672.9-28.65 673.4-28.3L673.4-28.3Q673.7-28.1 673.8-27.78 673.9-27.45 673.9-26.8L673.9-26.8Q673.9-26.15 673.85-25.7L673.85-25.7Q673.8-25.2 673.8-24.5L673.8-24.5 673.8-24.15Q673.85-24 673.85-23.7L673.85-23.7 673.85-22.4 673.8-16.65 673.8-11 673.8-9.65Q673.8-4.25 673.7-2.8L673.7-2.8 673.55-1.15Q673.3 0 672.85 0.05L672.85 0.05Q672.75 0.05 672.57 0.1 672.4 0.15 672.2 0.15L672.2 0.15Q670.4 0.15 669.55 0.05L669.55 0.05 666.95 0.05 664.35 0.05 663.7 0.05Q663.55 0.1 663.3 0.1L663.3 0.1Q662.7 0.1 662.05-0.15L662.05-0.15Q661.65-0.25 661.2-0.7L661.2-0.7 656.8-6.9Q656.55-7.25 655.85-8.05L655.85-8.05 655.2-8.65Q654.95-8.9 654.8-8.9L654.8-8.9Q654.65-8.9 654.55-8.78 654.45-8.65 654.45-8.55L654.45-8.55 654.45-7.7Q654.4-7.3 654.4-6.45L654.4-6.45 654.4-5Q654.35-4.45 654.35-3.5L654.35-3.5 654.35-2.3 654.35-1.55Q654.3-1.45 654.3-1.25L654.3-1.25Q654.3-1.2 654.15-0.45L654.15-0.45Q654.05-0.25 654-0.2 653.95-0.15 653.65-0.15L653.65-0.15Q653.55-0.2 653.48-0.2 653.4-0.2 653.35-0.2L653.35-0.2Q649.4 0.15 646.8 0.15L646.8 0.15ZM692.05 1.15Q688.85 1.15 686.1-0.4L686.1-0.4Q682.9-2 681.05-5.2L681.05-5.2Q678.95-8.9 678.95-14.2L678.95-14.2Q678.95-17.85 680.27-20.8 681.6-23.75 684-25.8L684-25.8Q686.35-27.8 689.55-28.85 692.75-29.9 696.5-29.9L696.5-29.9Q701.85-29.9 707.95-27.05L707.95-27.05 706.2-19.7Q705.3-19.9 704.55-20.15L704.55-20.15Q702.6-20.7 701-20.95L701-20.95Q699.9-21.15 699.3-21.15L699.3-21.15Q696.7-21.15 695.25-19.7L695.25-19.7Q693.55-17.9 693.55-13.95L693.55-13.95Q693.55-10.6 694.6-8.8L694.6-8.8Q695.6-7.4 697.25-7.4L697.25-7.4Q698.6-7.4 699.85-7.95L699.85-7.95Q699.8-8.45 699.75-9.13 699.7-9.8 699.7-10.7L699.7-10.7Q699.5-12.5 699.3-13.25L699.3-13.25 699.3-15.2Q699.3-15.55 699.6-15.55L699.6-15.55 699.85-15.55Q700-15.55 700.15-15.6 700.3-15.65 700.45-15.65L700.45-15.65Q700.95-15.75 701.05-15.75L701.05-15.75Q701.4-15.75 702-15.65L702-15.65Q702.2-15.65 702.45-15.6 702.7-15.55 702.95-15.55L702.95-15.55Q703.15-15.75 704.2-15.75L704.2-15.75Q705-15.75 705.45-15.8L705.45-15.8Q705.75-15.9 706.2-15.9L706.2-15.9 706.8-16.05Q707.25-16 708.1-16L708.1-16Q708.45-15.95 709.05-15.95L709.05-15.95Q709.2-15.95 709.3-15.93 709.4-15.9 709.45-15.9L709.45-15.9 710.55-15.9 710.75-15.8 710.75-14.4Q710.8-14.15 710.8-13.65L710.8-13.65 710.8-12.95 710.8-11.65 710.8-7.25 710.8-7.05Q710.75-6.9 710.75-6.65L710.75-6.65Q710.7-6.45 710.7-6.2L710.7-6.2 710.7-5.95Q710.7-3.3 710.6-2.2L710.6-2.2Q710.5-0.55 710.25 0.05L710.25 0.05Q709.2 0.05 708.6 0.15L708.6 0.15 707.6 0.15 707.5 0.15 707.05 0.15 707 0.05 706.8 0.15 702.45 0.15 702.25 0.15 701.8 0.15 701.3 0.15Q701.2 0.2 700.95 0.2L700.95 0.2Q700.6 0.2 700.45-0.8L700.45-0.8Q700.2-1.9 700.2-3.4L700.2-3.4Q699.7-1.2 697.45 0L697.45 0Q695.25 1.15 692.05 1.15L692.05 1.15ZM741.25 1.15Q738.05 1.15 735.3-0.4L735.3-0.4Q732.1-2 730.25-5.2L730.25-5.2Q728.15-8.9 728.15-14.2L728.15-14.2Q728.15-17.85 729.47-20.8 730.8-23.75 733.2-25.8L733.2-25.8Q735.55-27.8 738.75-28.85 741.95-29.9 745.7-29.9L745.7-29.9Q751.05-29.9 757.15-27.05L757.15-27.05 755.4-19.7Q754.5-19.9 753.75-20.15L753.75-20.15Q751.8-20.7 750.2-20.95L750.2-20.95Q749.1-21.15 748.5-21.15L748.5-21.15Q745.9-21.15 744.45-19.7L744.45-19.7Q742.75-17.9 742.75-13.95L742.75-13.95Q742.75-10.6 743.8-8.8L743.8-8.8Q744.8-7.4 746.45-7.4L746.45-7.4Q747.8-7.4 749.05-7.95L749.05-7.95Q749-8.45 748.95-9.13 748.9-9.8 748.9-10.7L748.9-10.7Q748.7-12.5 748.5-13.25L748.5-13.25 748.5-15.2Q748.5-15.55 748.8-15.55L748.8-15.55 749.05-15.55Q749.2-15.55 749.35-15.6 749.5-15.65 749.65-15.65L749.65-15.65Q750.15-15.75 750.25-15.75L750.25-15.75Q750.6-15.75 751.2-15.65L751.2-15.65Q751.4-15.65 751.65-15.6 751.9-15.55 752.15-15.55L752.15-15.55Q752.35-15.75 753.4-15.75L753.4-15.75Q754.2-15.75 754.65-15.8L754.65-15.8Q754.95-15.9 755.4-15.9L755.4-15.9 756-16.05Q756.45-16 757.3-16L757.3-16Q757.65-15.95 758.25-15.95L758.25-15.95Q758.4-15.95 758.5-15.93 758.6-15.9 758.65-15.9L758.65-15.9 759.75-15.9 759.95-15.8 759.95-14.4Q760-14.15 760-13.65L760-13.65 760-12.95 760-11.65 760-7.25 760-7.05Q759.95-6.9 759.95-6.65L759.95-6.65Q759.9-6.45 759.9-6.2L759.9-6.2 759.9-5.95Q759.9-3.3 759.8-2.2L759.8-2.2Q759.7-0.55 759.45 0.05L759.45 0.05Q758.4 0.05 757.8 0.15L757.8 0.15 756.8 0.15 756.7 0.15 756.25 0.15 756.2 0.05 756 0.15 751.65 0.15 751.45 0.15 751 0.15 750.5 0.15Q750.4 0.2 750.15 0.2L750.15 0.2Q749.8 0.2 749.65-0.8L749.65-0.8Q749.4-1.9 749.4-3.4L749.4-3.4Q748.9-1.2 746.65 0L746.65 0Q744.45 1.15 741.25 1.15L741.25 1.15ZM788.3 0.55Q786.1-1.6 784.55-3.8L784.55-3.8Q783.45-5.25 781.15-8.95L781.15-8.95 780.3-10.3Q780.25-10.35 780.22-10.38 780.2-10.4 780.2-10.4L780.2-10.4 779.95-10.4 779.75-10.3Q779.7-9.65 779.7-6.8L779.7-6.8Q779.7-4.95 779.5-2.45L779.5-2.45 779.45-0.95Q779.25-0.4 779.2-0.4L779.2-0.4 778.85-0.4 778.7-0.4Q773.2 0 770.7 0L770.7 0 769.95 0 769 0Q768.45 0 768.2-0.05L768.2-0.05 767.85-0.05 766.3-0.55 766.2-0.9Q766.1-0.9 766.07-1.1 766.05-1.3 766.05-1.4L766.05-1.4Q765.9-3.5 765.8-4.45L765.8-4.45Q765.6-7.15 765.55-8.4L765.55-8.4Q765.45-9.6 765.45-9.95L765.45-9.95 765.2-12.7 765.15-14.2Q765.1-14.65 765.1-15.45L765.1-15.45 765.1-15.9Q765.2-16.15 765.2-16.7L765.2-16.7 765.2-17.55Q765.25-17.75 765.25-18L765.25-18 765.2-18.4 765.2-18.9Q765.2-19.25 765.1-19.45L765.1-19.45 765.1-19.75 765.15-21Q765.2-21.35 765.2-22.05L765.2-22.05Q765.3-23.55 765.3-24.9L765.3-24.9 765.3-25.4Q765.25-25.55 765.25-26.05L765.25-26.05 765.25-26.75 765.25-27.25Q765.1-27.4 765.1-27.55L765.1-27.55Q765.1-28.25 766.35-28.55L766.35-28.55Q767-28.75 768.2-28.75L768.2-28.75Q779.9-28.75 785.7-27.95L785.7-27.95Q791.4-27.15 793.7-25.2L793.7-25.2Q794.7-24.25 795.12-22.98 795.55-21.7 795.55-19.95L795.55-19.95Q795.55-17.15 793.95-15.25L793.95-15.25Q792.9-14.2 791.5-13.5L791.5-13.5Q791.8-12.75 793.25-10.5L793.25-10.5Q793.55-10.15 793.82-9.75 794.1-9.35 794.5-8.9L794.5-8.9Q795.45-7.6 796.7-6.05L796.7-6.05Q796.75-5.85 797.1-5.2L797.1-5.2Q797.35-5.1 797.37-4.98 797.4-4.85 797.3-4.65L797.3-4.65Q796.9-4.05 794.95-2.9L794.95-2.9Q794.7-2.65 794.35-2.4L794.35-2.4Q793.35-1.6 791.6-0.75L791.6-0.75Q790 0.1 788.85 0.45L788.85 0.45Q788.4 0.7 788.3 0.55L788.3 0.55ZM779.2-17.05Q779.85-17.05 780.95-17.3L780.95-17.3Q782-17.6 782.45-17.9L782.45-17.9Q783.2-18.35 783.75-18.9L783.75-18.9Q784.3-19.55 784.3-20.4L784.3-20.4Q784.3-21.8 783.45-22.65L783.45-22.65Q782.7-23.25 781.6-23.25L781.6-23.25 779.45-23.25Q779.45-22.6 779.35-21.2L779.35-21.2 779.3-20.15Q779.2-19.15 779.2-17.05L779.2-17.05ZM816.2 1.25Q815.8 1.25 815.1 1.15L815.1 1.15Q814.75 1.05 814 1.05L814 1.05Q812.1 1.05 809.3 0.2L809.3 0.2 808.95 0.2Q808.6 0.2 808.2 0L808.2 0Q808.1-0.1 807.95-0.18 807.8-0.25 807.6-0.4L807.6-0.4 806.55-1Q805.05-1.85 803.9-3.38 802.75-4.9 802.05-6.75L802.05-6.75Q800.7-10.15 800.7-13.7L800.7-13.7Q800.7-17.65 802.3-21.3L802.3-21.3Q804-25.15 806.85-27.4L806.85-27.4Q810-29.9 813.85-29.9L813.85-29.9Q815.05-29.9 815.7-29.8L815.7-29.8Q815.7-29.9 815.85-29.9L815.85-29.9 816-29.9Q819.5-29.9 822.25-29.65L822.25-29.65Q824.6-29.3 826.6-28.2L826.6-28.2Q830.6-25.55 832.35-22.4L832.35-22.4Q834.2-18.9 834.2-14.15L834.2-14.15Q834.2-9.4 831.95-5.25L831.95-5.25 831.45-4.45Q831.25-4.15 831.2-4.15L831.2-4.15 831.05-3.9 830.7-3.7Q828.55-0.5 824.2 0.65L824.2 0.65Q821.3 1.25 816.2 1.25L816.2 1.25ZM817.05-2.5Q817.5-2.5 817.75-3.05L817.75-3.05Q818.35-3.95 818.75-6.55L818.75-6.55Q818.8-7 819-8.55 819.2-10.1 819.25-11.45L819.25-11.45Q819.45-14.85 819.45-15.65L819.45-15.65 819.45-16.8 819.45-17.2Q819.45-19 819.3-20.3L819.3-20.3Q819.15-22.35 818.7-23.55L818.7-23.55Q818.25-24.15 818-24.15L818-24.15Q817.5-24.15 817.05-23.4L817.05-23.4Q816.6-22.65 816.35-20.65L816.35-20.65 815.3-12.65 815.3-11.65 815.3-11Q815.45-8.9 815.45-8.25L815.45-8.25 815.55-7.05 815.7-5.45Q815.7-5.05 815.8-4.75L815.8-4.75 816.35-2.9Q816.4-2.7 816.62-2.6 816.85-2.5 817.05-2.5L817.05-2.5ZM849.25 0.75Q847.25 0.85 845.85 0.65L845.85 0.65Q844.7 0.4 843.75-0.05 842.8-0.5 842-1.45L842-1.45Q840.4-3.45 839.85-6.7L839.85-6.7Q839.45-9.35 839.55-12.5L839.55-12.5 839.55-14.7Q839.55-15.15 839.6-15.4L839.6-15.4 839.6-16.4 839.6-17.3 839.6-17.8 839.75-18.15Q839.75-18.2 839.77-18.3 839.8-18.4 839.8-18.65L839.8-18.65Q839.95-20.45 839.95-21.55L839.95-21.55 840.05-23.4Q840.1-24.65 840.1-26.3L840.1-26.3Q840.1-26.95 840.05-27.2L840.05-27.2Q839.95-27.8 839.95-28.15L839.95-28.15Q839.95-28.9 841.5-28.9L841.5-28.9 842.2-28.9Q842.8-28.9 843-29L843-29 849.1-28.9Q849.1-28.9 849.17-28.83 849.25-28.75 849.3-28.75L849.3-28.75 849.7-28.9Q852.3-28.9 853.05-28.4L853.05-28.4Q853.55-28.05 853.77-27.35 854-26.65 854-25.45L854-25.45Q854-24.65 854.1-23.25L854.1-23.25Q854.2-22.55 854.2-21.05L854.2-21.05 854.2-20.55Q854.1-19.1 854-15.8L854-15.8 853.95-13.4 853.95-11.25Q853.85-10.65 853.85-9.65L853.85-9.65 853.85-8.9 853.85-8.15Q853.8-7.45 854.05-6.2L854.05-6.2Q854.3-5.8 854.5-5.8L854.5-5.8Q854.8-5.8 856.75-6.55L856.75-6.55 857.95-7.15Q858.45-7.35 858.45-7.55L858.45-7.55 858.45-24Q858.3-25.05 858.3-25.65L858.3-25.65Q858.25-25.9 858.25-26.4L858.25-26.4 858.25-27.15 858.25-27.65Q858.25-28.25 858.5-28.5L858.5-28.5Q858.6-28.65 859-28.65L859-28.65Q859.1-28.65 859.2-28.58 859.3-28.5 859.3-28.4L859.3-28.4 859.3-28.3Q859.8-28.5 861.45-28.65L861.45-28.65Q862.8-28.8 864.45-28.8L864.45-28.8 865.7-28.8 866.5-28.8 867.45-28.8 872.7-28.65Q872.8-28.65 872.87-28.6 872.95-28.55 872.95-28.5L872.95-28.5Q873-28.5 873-28.45 873-28.4 873-28.4L873-28.4 873-28.15Q872.95-28.15 872.95-28L872.95-28 873.2-28.05Q873.25-28.15 873.35-28.15L873.35-28.15Q873.5-28.15 873.5-27.9L873.5-27.9Q873.5-19.15 873.42-13.38 873.35-7.6 873-1.7L873-1.7Q873-1.45 872.6-0.95L872.6-0.95Q872.4-0.7 872.25-0.55L872.25-0.55Q872.2-0.45 872.1-0.4 872-0.35 871.95-0.3L871.95-0.3Q871.9-0.35 871.6-0.43 871.3-0.5 871.1-0.5L871.1-0.5 870.95-0.4Q870.85-0.3 870.75-0.3L870.75-0.3Q868.75 0.05 864.45 0.05L864.45 0.05 862.25 0.05Q861 0.05 860.05-0.15L860.05-0.15Q859.7-0.4 859.3-1.4L859.3-1.4Q859.25-1.75 859.1-2L859.1-2Q859-2.25 858.85-2.25L858.85-2.25Q858.45-2.25 857.6-1.7L857.6-1.7Q857.5-1.6 857.32-1.48 857.15-1.35 857-1.2L857-1.2Q856.6-0.9 856.45-0.7L856.45-0.7Q855.1 0.05 853.25 0.4L853.25 0.4Q852 0.7 850.95 0.7L850.95 0.7Q849.8 0.7 849.25 0.75L849.25 0.75ZM880.6 0.15Q879.85 0.15 879.6-0.75L879.6-0.75Q879.45-1.25 879.45-2.55L879.45-2.55Q879.45-6.4 879.35-9.25L879.35-9.25Q879.2-13.6 879.2-18.3L879.2-18.3 879.2-27.9Q879.2-28.3 879.57-28.65 879.95-29 880.35-29L880.35-29Q883.95-29 885.35-28.95L885.35-28.95 889-28.9Q890.5-28.9 894-29L894-29Q895.8-29.05 899.95-29.05L899.95-29.05Q903-29.05 905.2-28.3L905.2-28.3Q908-27.4 909.95-25.4L909.95-25.4Q911.95-23 911.95-19.05L911.95-19.05Q911.95-12.55 908.6-9.45L908.6-9.45Q905.55-6.7 899.75-6.7L899.75-6.7 893.8-6.7Q893.8-5.2 893.7-4.9L893.7-4.9Q893.7-4.55 893.65-4.4 893.6-4.25 893.6-4.2L893.6-4.2Q893.6-4.05 893.7-3.9L893.7-3.9 893.7-3.2 893.8-2.55 893.8-2.2Q893.8-0.85 893.2-0.3L893.2-0.3Q892.95-0.1 892.47-0.05 892 0 891.45 0L891.45 0 888.75 0 887.35 0.05Q885.25 0.15 883.95 0.15L883.95 0.15 880.6 0.15ZM895-11.95L896.2-11.95Q897-11.95 897.5-13.65L897.5-13.65Q897.85-14.8 898.05-17.2L898.05-17.2Q898.1-18.4 898.1-20L898.1-20 898.1-20.45Q898.1-21.55 897.85-22.55L897.85-22.55Q897.6-24.05 897-24.55L897-24.55Q896.65-24.9 896.2-24.9L896.2-24.9Q895.8-24.9 895.5-24.4L895.5-24.4Q894.95-23.35 894.7-20.9L894.7-20.9Q894.45-19.5 894.45-18.5L894.45-18.5Q894.2-16.2 894.2-12.05L894.2-12.05Q894.2-12.05 894.27-12.03 894.35-12 894.45-12L894.45-12Q894.5-11.95 895-11.95L895-11.95Z" opacity="1" transform="matrix(1,0,0,1,0,0)" fill="#000000" class="slogan-text-1" data-fill-palette-color="secondary" id="text-1"></path></svg></g></svg></g></svg></g></svg></g><g transform="matrix(1,0,0,1,125.88080269708266,0)"><svg viewBox="0 0 143.75839460583467 168.57310582743037" height="168.57310582743037" width="143.75839460583467"><g><svg xmlns="http://www.w3.org/2000/svg" xmlns:xlink="http://www.w3.org/1999/xlink" version="1.1" x="0" y="0" viewBox="7.468 2 37.72 44.231" enable-background="new 0 0 50 50" xml:space="preserve" height="168.57310582743037" width="143.75839460583467" class="icon-icon-0" data-fill-palette-color="accent" id="icon-0"><g fill="#00d1cd" data-fill-palette-color="accent"><path fill="#000000" d="M7.468 46.231h28.155c0.012 0 0.026-0.007 0.037-0.007l0 0c0.383 0 0.764-0.144 1.057-0.438l7.94-7.847c0.316-0.273 0.531-0.673 0.531-1.127V2H7.469v44.231H7.468zM37.121 41.166v-2.854h2.89L37.121 41.166zM10.466 5h31.722v30.317h-8.063v7.914H10.466V5L10.466 5z" data-fill-palette-color="accent"></path><path fill="#000000" d="M24.95 12.392c-0.587-0.583-1.534-0.583-2.122 0l-7.053 7.055c-0.021 0.021-0.051 0.026-0.069 0.045-0.298 0.295-0.438 0.686-0.438 1.071-0.004 0.388 0.139 0.777 0.438 1.069 0.023 0.021 0.051 0.027 0.069 0.051l7.053 7.049c0.294 0.295 0.678 0.44 1.06 0.44 0.382 0 0.769-0.149 1.063-0.44 0.583-0.584 0.583-1.533 0-2.118l-6.053-6.051 6.053-6.051C25.535 13.927 25.535 12.977 24.95 12.392z" data-fill-palette-color="accent"></path><path fill="#000000" d="M36.874 21.671c0.022-0.023 0.052-0.029 0.069-0.051 0.297-0.295 0.438-0.681 0.438-1.069 0.002-0.391-0.141-0.778-0.438-1.071-0.019-0.02-0.053-0.025-0.069-0.048l-7.051-7.053c-0.585-0.583-1.536-0.583-2.121 0-0.586 0.584-0.586 1.533 0 2.119l6.05 6.053-6.05 6.05c-0.586 0.586-0.586 1.534 0 2.121 0.292 0.293 0.677 0.438 1.061 0.438 0.386 0 0.766-0.151 1.062-0.438L36.874 21.671z" data-fill-palette-color="accent"></path></g></svg></g></svg></g><g></g></svg></g><defs></defs></svg><rect width="314.53567373060434" height="247.2" fill="none" stroke="none" visibility="hidden"></rect></g></svg></g></svg>